# xmcd CD database file
#
# Track frame offsets:
#	150
#	22405
#	46972
#	75930
#	99562
#	126127
#	148757
#	173392
#	197027
#	216095
#	238325
#	258380
#	277992
#	298110
#	318697
#
# Disc length: 4605 seconds
#
# Revision: 0
# Processed by: cddbd v1.4PL0 Copyright (c) Steve Scherf et al.
# Submitted via: Feurio! 1.66 - http://www.feurio.com
#
DISCID=e011fb0f
DTITLE=Nando Cruz - Best of
DYEAR=1900
DGENRE=
TTITLE0=Eh so bo
TTITLE1=Sheila
TTITLE2=celina
TTITLE3=Cabo-verde querida
TTITLE4=Ribeira D'paul
TTITLE5=Po Ley
TTITLE6=Movimento
TTITLE7=Baiana
TTITLE8=Menininha-Salamsa
TTITLE9=Coração-Perdido
TTITLE10=Piranha
TTITLE11=Soraia
TTITLE12=Julia and Joana
TTITLE13=Angela
TTITLE14=Badia na Baia
EXTD=ProduMédia Sanumbila - Beto Bumbu
EXTT0=
EXTT1=
EXTT2=
EXTT3=
EXTT4=
EXTT5=
EXTT6=
EXTT7=
EXTT8=
EXTT9=
EXTT10=
EXTT11=
EXTT12=
EXTT13=
EXTT14=
PLAYORDER=
